<?xml version="1.0" encoding="UTF-8" standalone="no"?>
<!DOCTYPE svg PUBLIC "-//W3C//DTD SVG 1.1//EN" "http://www.w3.org/Graphics/SVG/1.1/DTD/svg11.dtd">
<svg width="100%" height="100%" viewBox="0 0 511 511" version="1.1" xmlns="http://www.w3.org/2000/svg" xmlns:xlink="http://www.w3.org/1999/xlink" xml:space="preserve" xmlns:serif="http://www.serif.com/" style="fill-rule:evenodd;clip-rule:evenodd;stroke-linejoin:round;stroke-miterlimit:2;">
    <g transform="matrix(0.995485,0,0,0.988602,17.8475,21.5319)">
        <g transform="matrix(0.748648,-4.0729e-22,4.04474e-22,0.748648,47.4502,96.8722)">
            <path d="M327,23.5C327,10.542 316.458,0 303.5,0L207.5,0C194.542,0 184,10.542 184,23.5C184,33.836 190.71,42.628 200,45.766L200,455.5C200,486.103 224.897,511 255.5,511C286.103,511 311,486.103 311,455.5L311,45.766C320.29,42.628 327,33.836 327,23.5ZM303.5,32L287.497,32C283.355,32 279.997,35.358 279.997,39.5C279.997,43.642 283.355,47 287.497,47L296,47L296,455.5C296,477.832 277.832,496 255.5,496C233.168,496 215,477.832 215,455.5L215,391L231.5,391C235.642,391 239,387.642 239,383.5C239,379.358 235.642,376 231.5,376L215,376L215,359L247.5,359C251.642,359 255,355.642 255,351.5C255,347.358 251.642,344 247.5,344L215,344L215,327L231.5,327C235.642,327 239,323.642 239,319.5C239,315.358 235.642,312 231.5,312L215,312L215,295L231.5,295C235.642,295 239,291.642 239,287.5C239,283.358 235.642,280 231.5,280L215,280L215,263L247.5,263C251.642,263 255,259.642 255,255.5C255,251.358 251.642,248 247.5,248L215,248L215,231L231.5,231C235.642,231 239,227.642 239,223.5C239,219.358 235.642,216 231.5,216L215,216L215,199L231.5,199C235.642,199 239,195.642 239,191.5C239,187.358 235.642,184 231.5,184L215,184L215,167L247.5,167C251.642,167 255,163.642 255,159.5C255,155.358 251.642,152 247.5,152L215,152L215,135L231.5,135C235.642,135 239,131.642 239,127.5C239,123.358 235.642,120 231.5,120L215,120L215,47L255.5,47C259.642,47 263,43.642 263,39.5C263,35.358 259.642,32 255.5,32L207.5,32C202.813,32 199,28.187 199,23.5C199,18.813 202.813,15 207.5,15L303.5,15C308.187,15 312,18.813 312,23.5C312,28.187 308.187,32 303.5,32Z" style="fill:white;fill-rule:nonzero;stroke:white;stroke-width:33.86px;"/>
        </g>
        <g transform="matrix(3.08979e-06,0.748648,-0.748648,3.08979e-06,430.008,-143.854)">
            <path d="M327,23.5C327,10.542 316.458,0 303.5,0L207.5,0C194.542,0 184,10.542 184,23.5C184,33.836 190.71,42.628 200,45.766L200,455.5C200,486.103 224.897,511 255.5,511C286.103,511 311,486.103 311,455.5L311,45.766C320.29,42.628 327,33.836 327,23.5ZM303.5,32L287.497,32C283.355,32 279.997,35.358 279.997,39.5C279.997,43.642 283.355,47 287.497,47L296,47L296,455.5C296,477.832 277.832,496 255.5,496C233.168,496 215,477.832 215,455.5L215,391L231.5,391C235.642,391 239,387.642 239,383.5C239,379.358 235.642,376 231.5,376L215,376L215,359L247.5,359C251.642,359 255,355.642 255,351.5C255,347.358 251.642,344 247.5,344L215,344L215,327L231.5,327C235.642,327 239,323.642 239,319.5C239,315.358 235.642,312 231.5,312L215,312L215,295L231.5,295C235.642,295 239,291.642 239,287.5C239,283.358 235.642,280 231.5,280L215,280L215,263L247.5,263C251.642,263 255,259.642 255,255.5C255,251.358 251.642,248 247.5,248L215,248L215,231L231.5,231C235.642,231 239,227.642 239,223.5C239,219.358 235.642,216 231.5,216L215,216L215,199L231.5,199C235.642,199 239,195.642 239,191.5C239,187.358 235.642,184 231.5,184L215,184L215,167L247.5,167C251.642,167 255,163.642 255,159.5C255,155.358 251.642,152 247.5,152L215,152L215,135L231.5,135C235.642,135 239,131.642 239,127.5C239,123.358 235.642,120 231.5,120L215,120L215,47L255.5,47C259.642,47 263,43.642 263,39.5C263,35.358 259.642,32 255.5,32L207.5,32C202.813,32 199,28.187 199,23.5C199,18.813 202.813,15 207.5,15L303.5,15C308.187,15 312,18.813 312,23.5C312,28.187 308.187,32 303.5,32Z" style="fill:white;fill-rule:nonzero;stroke:white;stroke-width:33.86px;"/>
        </g>
    </g>
    <g transform="matrix(1.04708,0,0,1.03984,5.5304,9.40573)">
        <g transform="matrix(0.711759,0,0,0.711759,56.8754,103.76)">
            <path d="M327,23.5C327,10.542 316.458,0 303.5,0L207.5,0C194.542,0 184,10.542 184,23.5C184,33.836 190.71,42.628 200,45.766L200,455.5C200,486.103 224.897,511 255.5,511C286.103,511 311,486.103 311,455.5L311,45.766C320.29,42.628 327,33.836 327,23.5ZM303.5,32L287.497,32C283.355,32 279.997,35.358 279.997,39.5C279.997,43.642 283.355,47 287.497,47L296,47L296,455.5C296,477.832 277.832,496 255.5,496C233.168,496 215,477.832 215,455.5L215,391L231.5,391C235.642,391 239,387.642 239,383.5C239,379.358 235.642,376 231.5,376L215,376L215,359L247.5,359C251.642,359 255,355.642 255,351.5C255,347.358 251.642,344 247.5,344L215,344L215,327L231.5,327C235.642,327 239,323.642 239,319.5C239,315.358 235.642,312 231.5,312L215,312L215,295L231.5,295C235.642,295 239,291.642 239,287.5C239,283.358 235.642,280 231.5,280L215,280L215,263L247.5,263C251.642,263 255,259.642 255,255.5C255,251.358 251.642,248 247.5,248L215,248L215,231L231.5,231C235.642,231 239,227.642 239,223.5C239,219.358 235.642,216 231.5,216L215,216L215,199L231.5,199C235.642,199 239,195.642 239,191.5C239,187.358 235.642,184 231.5,184L215,184L215,167L247.5,167C251.642,167 255,163.642 255,159.5C255,155.358 251.642,152 247.5,152L215,152L215,135L231.5,135C235.642,135 239,131.642 239,127.5C239,123.358 235.642,120 231.5,120L215,120L215,47L255.5,47C259.642,47 263,43.642 263,39.5C263,35.358 259.642,32 255.5,32L207.5,32C202.813,32 199,28.187 199,23.5C199,18.813 202.813,15 207.5,15L303.5,15C308.187,15 312,18.813 312,23.5C312,28.187 308.187,32 303.5,32Z" style="fill-rule:nonzero;"/>
        </g>
        <g transform="matrix(2.93754e-06,0.711759,-0.711759,2.93754e-06,420.583,-125.104)">
            <path d="M327,23.5C327,10.542 316.458,0 303.5,0L207.5,0C194.542,0 184,10.542 184,23.5C184,33.836 190.71,42.628 200,45.766L200,455.5C200,486.103 224.897,511 255.5,511C286.103,511 311,486.103 311,455.5L311,45.766C320.29,42.628 327,33.836 327,23.5ZM303.5,32L287.497,32C283.355,32 279.997,35.358 279.997,39.5C279.997,43.642 283.355,47 287.497,47L296,47L296,455.5C296,477.832 277.832,496 255.5,496C233.168,496 215,477.832 215,455.5L215,391L231.5,391C235.642,391 239,387.642 239,383.5C239,379.358 235.642,376 231.5,376L215,376L215,359L247.5,359C251.642,359 255,355.642 255,351.5C255,347.358 251.642,344 247.5,344L215,344L215,327L231.5,327C235.642,327 239,323.642 239,319.5C239,315.358 235.642,312 231.5,312L215,312L215,295L231.5,295C235.642,295 239,291.642 239,287.5C239,283.358 235.642,280 231.5,280L215,280L215,263L247.5,263C251.642,263 255,259.642 255,255.5C255,251.358 251.642,248 247.5,248L215,248L215,231L231.5,231C235.642,231 239,227.642 239,223.5C239,219.358 235.642,216 231.5,216L215,216L215,199L231.5,199C235.642,199 239,195.642 239,191.5C239,187.358 235.642,184 231.5,184L215,184L215,167L247.5,167C251.642,167 255,163.642 255,159.5C255,155.358 251.642,152 247.5,152L215,152L215,135L231.5,135C235.642,135 239,131.642 239,127.5C239,123.358 235.642,120 231.5,120L215,120L215,47L255.5,47C259.642,47 263,43.642 263,39.5C263,35.358 259.642,32 255.5,32L207.5,32C202.813,32 199,28.187 199,23.5C199,18.813 202.813,15 207.5,15L303.5,15C308.187,15 312,18.813 312,23.5C312,28.187 308.187,32 303.5,32Z" style="fill-rule:nonzero;"/>
        </g>
    </g>
</svg>
